<?xml version="1.0" standalone="no"?>
<!DOCTYPE svg PUBLIC "-//W3C//DTD SVG 20010904//EN"
 "http://www.w3.org/TR/2001/REC-SVG-20010904/DTD/svg10.dtd">
<svg version="1.0" xmlns="http://www.w3.org/2000/svg"
 width="600.000000pt" height="598.000000pt" viewBox="0 0 600.000000 598.000000"
 preserveAspectRatio="xMidYMid meet">

<g transform="translate(0.000000,598.000000) scale(0.100000,-0.100000)"
fill="#000000" stroke="none">
<path d="M2965 5903 l-36 -66 10 -324 c6 -178 11 -364 11 -413 l0 -90 55 0 55
0 0 90 c0 49 5 235 11 413 l10 324 -36 66 c-20 37 -38 67 -40 67 -2 0 -20 -30
-40 -67z"/>
<path d="M2831 5664 l-45 -78 24 -293 c22 -283 24 -293 44 -293 51 1 50 -10
35 380 l-14 362 -44 -78z"/>
<path d="M3120 5379 c-14 -389 -15 -378 36 -379 20 0 22 10 44 293 l24 293
-34 60 c-18 32 -39 67 -45 76 -9 14 -15 -63 -25 -343z"/>
<path d="M1510 5493 l0 -78 217 -352 218 -351 25 13 c72 39 83 5 -129 401
-106 197 -201 366 -212 374 -10 8 -41 28 -69 43 l-50 28 0 -78z"/>
<path d="M4430 5531 l-65 -40 -194 -362 c-214 -399 -203 -366 -131 -404 l25
-13 218 351 217 352 0 77 c0 43 -1 78 -2 78 -2 0 -32 -18 -68 -39z"/>
<path d="M2681 5397 l-33 -62 21 -145 c32 -215 27 -200 67 -200 19 0 34 3 34
8 -1 34 -49 454 -52 457 -2 2 -19 -24 -37 -58z"/>
<path d="M3286 5429 c-3 -19 -12 -106 -21 -194 -9 -88 -18 -179 -22 -202 l-5
-43 35 0 c41 0 37 -13 67 196 l22 152 -35 63 -35 62 -6 -34z"/>
<path d="M1743 5423 c3 -5 78 -147 167 -318 89 -170 164 -312 166 -314 5 -5
64 20 64 28 -1 3 -56 123 -123 265 l-123 260 -69 43 c-68 41 -91 51 -82 36z"/>
<path d="M4185 5387 l-69 -43 -123 -260 c-67 -142 -122 -262 -123 -265 0 -8
59 -33 64 -28 3 3 228 430 328 622 13 25 0 21 -77 -26z"/>
<path d="M1510 5215 l0 -90 160 -229 c87 -126 163 -233 168 -238 13 -13 65 21
58 38 -6 15 -365 584 -378 599 -4 5 -8 -31 -8 -80z"/>
<path d="M4306 5004 c-103 -163 -190 -302 -192 -309 -7 -18 44 -51 57 -38 5 5
82 113 169 239 l160 229 0 88 c0 48 -1 87 -3 87 -2 0 -88 -133 -191 -296z"/>
<path d="M2029 5228 c10 -24 47 -106 81 -183 34 -77 69 -155 76 -173 14 -32
15 -32 44 -17 17 9 30 18 30 22 0 3 -28 78 -62 165 l-62 160 -59 34 c-32 19
-60 34 -62 34 -2 0 4 -19 14 -42z"/>
<path d="M3930 5235 l-56 -33 -62 -160 c-34 -87 -62 -162 -62 -165 0 -4 14
-13 30 -22 29 -15 31 -15 39 7 5 13 42 95 81 183 99 220 101 225 93 224 -5 0
-33 -16 -63 -34z"/>
<path d="M2558 5177 l-27 -52 18 -80 c18 -79 18 -80 47 -77 16 2 31 5 33 8 6
6 -31 244 -39 249 -3 2 -18 -20 -32 -48z"/>
<path d="M3418 5224 c-8 -14 -42 -243 -37 -248 2 -3 17 -6 33 -8 29 -3 29 -2
47 79 l18 82 -28 52 c-16 28 -31 47 -33 43z"/>
<path d="M2240 5132 c0 -4 19 -58 42 -120 l42 -114 30 6 c16 4 31 8 34 10 2 3
-8 41 -23 85 -25 75 -29 82 -76 110 -27 17 -49 27 -49 23z"/>
<path d="M3718 5108 c-43 -27 -49 -35 -73 -109 -15 -44 -25 -82 -23 -85 3 -2
18 -6 34 -10 l30 -6 43 117 c24 64 42 117 40 119 -2 2 -25 -10 -51 -26z"/>
<path d="M2481 5045 c-3 -27 -18 -37 -40 -26 -20 11 -21 10 -15 -16 15 -63 21
-71 49 -65 35 6 38 18 21 72 -8 25 -15 41 -15 35z"/>
<path d="M3511 5006 c-13 -54 -11 -62 25 -69 26 -5 34 6 50 70 6 23 5 24 -16
13 -12 -6 -23 -10 -24 -8 -2 2 -8 11 -13 22 -9 15 -12 11 -22 -28z"/>
<path d="M1513 4914 l7 -75 106 -135 c58 -74 108 -134 110 -134 15 0 54 35 51
45 -8 18 -268 375 -274 375 -3 0 -3 -34 0 -76z"/>
<path d="M4360 4808 c-73 -100 -134 -187 -137 -193 -3 -10 36 -45 51 -45 3 0
52 60 110 134 l106 134 7 76 c3 42 3 76 0 76 -3 0 -65 -82 -137 -182z"/>
<path d="M3088 4875 c-36 -19 -69 -39 -73 -45 -8 -14 115 46 134 65 21 21 16
19 -61 -20z"/>
<path d="M2750 4861 c-5 -11 -10 -26 -10 -35 0 -24 -17 -27 -54 -9 -27 13 -39
14 -48 5 -16 -16 7 -41 32 -35 11 3 31 -2 44 -10 22 -15 25 -15 30 -1 3 9 6
27 6 40 0 14 7 27 15 30 16 7 21 34 5 34 -5 0 -14 -9 -20 -19z"/>
<path d="M2886 4858 c-22 -31 -20 -58 3 -58 11 0 23 5 26 10 3 6 1 10 -4 10
-15 0 -14 33 1 48 9 9 9 12 1 12 -7 0 -19 -10 -27 -22z"/>
<path d="M2461 4779 c-29 -33 -51 -62 -49 -65 7 -6 108 102 108 115 0 17 -2
15 -59 -50z"/>
<path d="M3297 4816 c-10 -26 -2 -33 35 -32 36 2 58 12 58 27 0 6 -5 7 -10 4
-6 -4 -17 -1 -25 5 -11 9 -15 9 -15 1 0 -15 -27 -14 -32 1 -3 7 -7 5 -11 -6z"/>
<path d="M3520 4820 c-8 -5 -28 -10 -44 -10 -39 0 -22 -18 19 -22 36 -2 55 7
55 28 0 16 -9 18 -30 4z"/>
<path d="M3593 4793 c-7 -3 -13 -18 -13 -34 0 -27 -60 -282 -75 -321 -4 -10
-5 -18 -1 -18 13 0 39 69 65 173 18 72 32 111 40 109 9 -2 10 10 5 45 -8 56
-6 51 -21 46z"/>
<path d="M2461 4723 c-48 -55 -68 -90 -36 -63 28 23 98 111 92 116 -2 3 -28
-21 -56 -53z"/>
<path d="M2838 4763 c-8 -10 -18 -26 -21 -35 -5 -15 -2 -16 19 -8 16 6 43 6
77 -2 l52 -11 -25 -16 c-55 -36 -80 -65 -90 -101 -6 -21 -22 -48 -37 -59 -26
-22 -83 -29 -83 -11 0 6 -4 10 -10 10 -5 0 -10 -7 -10 -16 0 -9 -14 -29 -31
-45 -35 -32 -91 -39 -124 -15 -18 13 -18 14 2 42 12 16 33 40 47 53 14 14 26
35 26 49 0 24 -2 23 -45 -17 -24 -22 -54 -41 -65 -41 -24 0 -62 18 -72 34 -10
15 30 55 76 76 l38 18 -30 7 c-42 9 -67 -7 -86 -55 -21 -54 -20 -86 4 -110 26
-26 25 -32 -2 -28 -18 2 -38 32 -95 143 -46 89 -72 131 -73 116 0 -30 123
-269 151 -293 19 -16 24 -16 55 -3 34 14 35 14 44 -11 13 -33 65 -55 100 -42
43 16 90 58 90 80 0 20 1 20 20 3 26 -24 67 -12 88 25 11 20 22 28 32 24 8 -3
27 -8 42 -11 23 -5 28 -1 34 23 5 20 1 39 -13 66 l-21 37 38 26 c42 29 90 45
137 45 26 0 33 4 33 20 0 18 -7 20 -69 20 -38 0 -88 7 -111 15 -55 19 -74 19
-92 -2z m62 -178 c11 -13 8 -15 -14 -15 -16 0 -26 5 -26 15 0 8 6 15 14 15 7
0 19 -7 26 -15z"/>
<path d="M3474 4742 c-9 -5 -10 -30 -4 -87 9 -93 2 -115 -40 -115 -44 0 -60
31 -60 117 0 40 -4 73 -9 73 -10 0 -21 -59 -21 -117 0 -35 -5 -46 -27 -60 -33
-22 -107 -24 -127 -3 -12 13 -11 26 7 98 11 45 17 85 13 89 -13 13 -51 -37
-91 -120 -40 -82 -58 -97 -79 -64 -9 14 -6 26 12 58 22 39 23 42 7 58 -15 15
-17 15 -30 -3 -10 -13 -11 -23 -5 -31 7 -9 7 -21 0 -39 -25 -66 -4 -125 40
-111 23 7 40 36 64 111 9 28 28 62 43 75 23 21 25 22 18 4 -43 -108 -44 -127
-10 -160 41 -42 137 -26 166 27 l12 22 13 -27 c23 -43 87 -47 112 -6 28 44 24
229 -4 211z"/>
<path d="M3697 4722 c-15 -17 -24 -52 -12 -52 23 0 55 27 55 47 0 28 -21 30
-43 5z"/>
<path d="M3260 4698 c0 -25 3 -29 10 -18 13 20 13 50 0 50 -5 0 -10 -15 -10
-32z"/>
<path d="M1520 4662 c0 -61 0 -62 58 -123 l58 -62 27 24 27 24 -71 85 c-107
128 -99 124 -99 52z"/>
<path d="M4401 4621 l-81 -100 27 -21 28 -22 58 61 c56 61 57 62 57 121 0 33
-2 60 -4 60 -2 0 -40 -45 -85 -99z"/>
<path d="M2703 4695 c-13 -9 -23 -23 -23 -31 0 -18 9 -18 32 3 24 21 33 11 17
-19 l-12 -23 22 19 c24 22 25 59 1 64 -8 1 -25 -5 -37 -13z"/>
<path d="M2120 4672 c0 -7 7 -27 16 -43 18 -36 47 -35 52 1 3 20 1 23 -9 13
-19 -19 -27 -16 -43 15 -8 15 -15 21 -16 14z"/>
<path d="M2207 4614 c-15 -36 -26 -71 -24 -77 2 -6 16 19 31 55 16 37 27 71
25 77 -2 5 -17 -19 -32 -55z"/>
<path d="M3777 4653 c-8 -10 -43 -77 -77 -150 -70 -147 -65 -143 -175 -142
-126 0 -224 54 -196 108 7 11 9 21 7 21 -10 0 -36 -58 -36 -79 0 -26 52 -68
103 -82 44 -12 179 -8 211 6 15 7 17 5 11 -13 -3 -12 -3 -31 0 -42 9 -28 61
-53 96 -46 23 4 29 2 29 -13 0 -36 32 -50 118 -55 71 -3 90 -8 133 -35 28 -17
59 -31 69 -31 35 0 31 19 -7 39 -40 20 -79 57 -107 102 l-17 27 50 7 c54 7 71
2 71 -21 0 -22 20 -17 29 9 16 42 7 46 -115 42 -118 -4 -168 -16 -126 -29 22
-7 95 -86 88 -94 -3 -2 -29 1 -60 8 -67 14 -106 42 -99 70 5 18 3 19 -21 10
-20 -7 -36 -6 -61 5 -56 23 -52 47 54 283 27 61 49 112 47 112 -2 0 -10 -8
-19 -17z"/>
<path d="M1990 4622 c0 -9 11 -27 23 -41 13 -15 53 -68 88 -120 63 -93 64 -94
63 -160 -1 -65 -19 -119 -60 -181 -9 -14 2 -6 24 16 57 59 76 139 52 226 -6
20 -37 77 -70 127 -33 50 -55 91 -50 91 21 0 8 16 -30 37 -35 18 -40 19 -40 5z"/>
<path d="M3870 4595 c-14 -16 -6 -21 40 -27 l25 -3 -30 -17 c-27 -15 -28 -17
-8 -18 34 0 73 18 73 34 0 19 -38 46 -66 46 -12 0 -27 -7 -34 -15z"/>
<path d="M1946 4546 c-40 -91 -41 -121 -1 -37 20 41 34 79 32 85 -3 6 -16 -16
-31 -48z"/>
<path d="M3642 4583 c-7 -3 -19 -17 -27 -33 -13 -25 -13 -29 1 -41 11 -9 18
-9 27 0 9 9 9 14 -2 21 -12 7 -12 12 3 34 9 14 15 26 14 25 -2 0 -9 -3 -16 -6z"/>
<path d="M4041 4514 c-32 -40 -24 -72 13 -58 13 5 14 9 4 21 -9 11 -9 19 1 35
19 31 6 32 -18 2z"/>
<path d="M1520 4492 c0 -17 -6 -22 -27 -22 l-27 0 39 -40 39 -40 25 25 26 25
-38 37 c-34 34 -37 36 -37 15z"/>
<path d="M2210 4495 c-15 -18 -6 -78 15 -95 12 -10 20 -9 40 4 14 9 25 23 25
31 0 25 19 17 26 -10 16 -63 -21 -167 -82 -236 l-39 -43 35 21 c19 12 49 40
65 63 28 39 30 47 30 137 0 91 -1 96 -28 119 -32 27 -69 31 -87 9z m39 -51
c-9 -11 -15 -12 -23 -4 -8 8 -7 13 4 20 20 12 33 1 19 -16z"/>
<path d="M2905 4464 c-33 -25 -62 -50 -64 -56 -5 -16 117 71 123 88 7 19 9 20
-59 -32z"/>
<path d="M4450 4476 l-34 -36 25 -25 25 -25 39 40 c39 40 39 40 13 40 -19 0
-28 6 -30 21 -3 18 -6 17 -38 -15z"/>
<path d="M1970 4492 c0 -8 43 -32 57 -32 3 0 -2 9 -12 20 -18 20 -45 27 -45
12z"/>
<path d="M422 4458 c8 -13 27 -44 41 -69 26 -44 40 -52 393 -243 202 -108 367
-196 369 -194 12 17 48 89 44 91 -2 2 -162 101 -355 220 l-351 217 -78 0 -77
0 14 -22z"/>
<path d="M685 4472 c6 -5 145 -96 310 -201 l300 -190 22 27 c18 21 20 29 10
39 -6 6 -113 81 -236 167 l-224 156 -71 0 c-39 0 -82 3 -96 6 -17 5 -22 3 -15
-4z"/>
<path d="M3135 4468 c-73 -39 -106 -60 -102 -65 6 -5 92 38 122 61 23 18 10
21 -20 4z"/>
<path d="M5220 4471 l-85 -6 -212 -148 c-116 -81 -221 -155 -232 -165 l-21
-17 22 -27 23 -27 300 190 c311 198 329 210 305 207 -8 -1 -53 -4 -100 -7z"/>
<path d="M5100 4265 c-190 -118 -349 -216 -355 -218 -8 -3 20 -69 40 -95 2 -2
167 86 369 194 353 191 367 199 393 243 14 25 33 56 41 69 l14 22 -78 0 -79 0
-345 -215z"/>
<path d="M1006 4461 c8 -8 273 -201 341 -249 l31 -22 21 29 21 29 -139 111
-139 111 -73 0 c-43 0 -69 -4 -63 -9z"/>
<path d="M1290 4439 c19 -17 65 -55 103 -86 66 -54 68 -55 87 -38 11 10 20 24
20 31 0 7 -28 37 -62 68 -61 55 -62 56 -122 56 l-61 -1 35 -30z"/>
<path d="M3206 4454 c-3 -9 -6 -29 -6 -45 0 -22 5 -29 19 -29 26 0 34 27 10
33 -16 4 -18 11 -13 31 7 28 0 36 -10 10z"/>
<path d="M4572 4414 c-34 -31 -62 -61 -62 -68 0 -7 9 -21 20 -31 19 -17 21
-16 87 38 38 31 84 69 103 86 l35 30 -61 1 c-60 0 -61 -1 -122 -56z"/>
<path d="M4727 4359 l-137 -111 21 -29 21 -29 31 22 c68 48 333 241 342 249 5
5 -22 9 -65 9 l-75 -1 -138 -110z"/>
<path d="M1805 4414 c-41 -21 -41 -20 -4 -40 26 -13 56 -16 139 -15 93 1 111
-1 152 -22 26 -13 45 -19 41 -13 -33 60 -114 91 -208 81 -51 -5 -63 -4 -68 9
-8 20 -14 20 -52 0z"/>
<path d="M2743 4404 c-7 -18 17 -38 31 -24 11 11 1 40 -14 40 -6 0 -13 -7 -17
-16z"/>
<path d="M2687 4390 c-7 -26 28 -48 37 -24 8 22 8 22 -13 33 -15 9 -20 7 -24
-9z"/>
<path d="M3834 4401 c-23 -10 -38 -37 -25 -46 5 -2 11 4 14 15 6 24 48 26 255
10 76 -6 140 -7 149 -2 10 6 -5 11 -48 15 -126 13 -324 17 -345 8z"/>
<path d="M2411 4381 c-7 -5 -12 -14 -10 -20 2 -6 10 -2 17 9 14 22 13 23 -7
11z"/>
<path d="M1721 4317 c-6 -35 -11 -75 -10 -88 0 -23 1 -23 9 -3 10 25 24 154
17 154 -3 0 -10 -28 -16 -63z"/>
<path d="M2430 4344 c-24 -9 -29 -13 -14 -13 11 -1 29 6 40 14 22 17 20 17
-26 -1z"/>
<path d="M4194 4287 c-29 -26 -26 -47 8 -47 15 0 18 4 14 16 -4 10 1 25 10 35
24 27 0 23 -32 -4z"/>
<path d="M1610 4283 c0 -17 40 -63 56 -63 19 0 30 28 15 43 -8 8 -11 8 -11 -1
0 -19 -17 -14 -40 10 -11 12 -20 17 -20 11z"/>
<path d="M3520 4283 c-45 -8 -40 -18 8 -15 26 2 51 8 57 13 9 9 -19 10 -65 2z"/>
<path d="M4295 4271 c-3 -11 -60 -72 -126 -135 -66 -64 -116 -116 -112 -116
16 0 58 34 140 112 82 77 98 88 105 67 2 -6 10 12 19 40 15 48 15 51 -2 51
-10 0 -20 -9 -24 -19z"/>
<path d="M1790 4250 c6 -11 18 -20 27 -20 9 0 21 -7 27 -16 7 -9 18 -12 29 -9
13 6 14 11 6 27 -6 11 -17 17 -25 14 -8 -3 -17 1 -20 9 -4 8 -17 15 -30 15
-22 0 -23 -3 -14 -20z"/>
<path d="M1911 4255 c3 -12 20 -22 52 -30 26 -7 50 -15 54 -18 13 -14 -20 -92
-52 -124 -50 -50 -75 -44 -127 28 -32 43 -102 78 -126 62 -34 -20 -22 -113 13
-113 17 0 50 30 57 51 4 11 10 10 31 -4 37 -24 35 -64 -4 -138 -36 -67 -118
-149 -149 -149 -31 0 -19 -24 15 -30 35 -6 45 -35 48 -136 2 -79 -10 -104 -50
-104 -13 0 -34 5 -46 11 -22 12 -22 12 -3 -9 10 -12 35 -25 54 -28 31 -6 39
-3 59 20 19 22 23 39 23 89 0 35 -6 87 -14 116 l-14 54 41 51 c39 50 97 159
97 184 0 9 5 10 19 2 50 -26 106 0 140 67 34 66 -9 148 -83 160 -33 5 -38 4
-35 -12z m-173 -137 c-6 -18 -28 -21 -28 -4 0 9 7 16 16 16 9 0 14 -5 12 -12z"/>
<path d="M550 4246 c0 -3 21 -40 46 -82 38 -61 55 -79 88 -94 22 -10 141 -65
262 -123 l222 -104 15 33 16 33 -292 152 c-161 83 -307 161 -324 171 -18 11
-33 17 -33 14z"/>
<path d="M2880 4244 c-188 -27 -313 -65 -452 -136 -407 -208 -669 -613 -685
-1060 -5 -134 -6 -138 -28 -138 -53 0 -1459 -61 -1461 -63 -2 -1 31 -21 72
-45 l76 -41 646 54 c356 30 657 55 670 55 17 0 22 -6 22 -25 0 -17 -6 -25 -17
-25 -15 0 -1131 -115 -1187 -123 -12 -1 3 -14 46 -38 l65 -36 549 81 c534 80
549 81 557 62 4 -11 3 -22 -3 -26 -5 -3 -218 -41 -472 -84 -255 -42 -478 -80
-496 -84 l-33 -7 54 -29 54 -29 453 96 c250 53 456 95 458 92 20 -19 -45 -40
-416 -130 -384 -93 -410 -100 -396 -116 12 -14 13 -22 5 -38 -9 -16 -9 -20 1
-16 48 16 807 235 816 235 7 0 12 -6 12 -13 0 -9 -79 -39 -222 -86 -123 -40
-322 -105 -442 -144 l-220 -72 -29 -48 c-16 -27 -28 -49 -26 -51 2 -2 213 75
469 170 256 96 470 174 476 174 15 0 27 -31 17 -40 -4 -4 -78 -35 -163 -68
-85 -33 -315 -124 -512 -201 l-356 -142 -36 -61 c-20 -33 -35 -62 -34 -63 2
-1 253 110 558 247 305 136 557 248 560 248 3 0 18 -26 34 -57 115 -236 324
-448 562 -570 179 -92 329 -131 534 -139 362 -16 703 124 960 392 87 90 176
214 225 314 15 30 29 57 31 59 3 3 596 -259 1007 -445 64 -29 117 -51 117 -49
0 2 -16 31 -36 64 l-36 60 -446 177 c-246 97 -476 188 -512 202 -36 14 -69 28
-73 32 -10 9 2 40 17 40 6 0 220 -78 476 -174 256 -95 467 -172 469 -170 2 2
-10 24 -26 51 l-29 48 -220 72 c-120 39 -319 104 -441 144 -144 47 -223 77
-223 86 0 7 5 13 12 13 9 0 768 -219 816 -235 10 -4 10 0 1 16 -8 16 -7 24 5
38 14 16 -12 23 -396 116 -371 90 -436 111 -416 130 2 3 208 -39 458 -92 l453
-96 54 29 54 29 -33 7 c-18 4 -241 42 -496 84 -254 43 -467 81 -472 84 -6 4
-7 15 -3 26 8 19 23 18 557 -62 l549 -81 65 36 c43 24 58 37 46 38 -56 8
-1172 123 -1187 123 -11 0 -17 8 -17 25 0 19 5 25 23 25 12 0 313 -25 669 -55
l646 -54 76 41 c41 24 74 44 72 45 -2 2 -1407 63 -1460 63 -20 0 -21 6 -23
100 -2 132 -24 253 -68 380 -67 191 -149 324 -292 471 -197 203 -454 335 -725
374 -94 13 -246 18 -308 9z m420 -49 c684 -176 1091 -855 915 -1527 -115 -443
-456 -783 -900 -900 -111 -29 -133 -31 -295 -32 -113 -1 -200 4 -245 13 -328
65 -629 264 -810 536 -223 335 -272 767 -129 1139 151 393 486 684 895 775
133 29 137 30 309 26 129 -3 173 -8 260 -30z"/>
<path d="M2850 4193 c-79 -12 -218 -48 -286 -74 -341 -131 -610 -418 -722
-769 -43 -136 -57 -227 -56 -375 1 -206 41 -371 135 -555 374 -730 1357 -887
1940 -310 425 421 486 1073 147 1567 -110 160 -316 334 -490 412 -94 42 -214
78 -315 96 -77 14 -287 19 -353 8z m361 -28 c787 -137 1224 -993 874 -1711
-164 -338 -475 -578 -845 -654 -149 -31 -389 -25 -533 13 -448 119 -779 466
-884 929 -23 103 -23 375 0 476 114 497 484 857 972 947 97 18 314 18 416 0z"/>
<path d="M3319 3915 c-62 -63 -85 -74 -123 -59 -21 8 -20 19 6 55 23 30 23 31
4 45 -37 27 -136 13 -136 -19 0 -7 14 -18 30 -24 41 -15 38 -39 -9 -62 -21
-11 -57 -41 -80 -67 l-41 -47 0 67 c0 45 -4 66 -12 67 -27 3 -44 -4 -76 -27
-26 -20 -42 -24 -79 -22 -61 4 -79 31 -56 85 21 53 11 60 -16 11 -36 -66 -60
-88 -136 -125 l-70 -35 60 7 c47 5 65 12 83 32 l23 26 27 -32 c20 -24 38 -34
69 -38 37 -5 47 -2 79 26 30 27 38 30 51 19 12 -10 14 -27 10 -83 -2 -38 -8
-79 -12 -90 -4 -11 17 16 46 60 45 65 62 82 96 95 23 8 53 26 66 38 24 23 25
23 38 4 15 -20 50 -42 68 -42 6 0 28 18 50 40 36 36 42 39 67 30 23 -9 31 -7
51 11 12 13 23 31 23 41 0 17 -26 78 -33 78 -2 0 -32 -29 -68 -65z"/>
<path d="M3725 3659 c-13 -29 -32 -35 -38 -12 -3 12 -5 9 -6 -9 -1 -33 14 -44
36 -27 8 7 25 13 37 14 15 0 22 7 24 25 3 20 1 23 -9 13 -17 -17 -27 -16 -31
3 -2 11 -6 9 -13 -7z"/>
<path d="M3795 3515 l-26 -35 -32 16 -31 17 -33 -38 c-18 -21 -30 -41 -28 -45
3 -5 19 -13 35 -19 28 -9 33 -7 56 18 23 26 28 28 56 17 28 -10 32 -9 59 24
16 19 29 38 29 42 0 4 -13 14 -29 22 -28 15 -30 15 -56 -19z"/>
<path d="M3538 3502 c-66 -43 -87 -73 -27 -40 46 26 109 77 94 77 -5 0 -36
-17 -67 -37z"/>
<path d="M2508 3444 c-38 -24 -68 -48 -68 -54 0 -13 127 68 134 86 3 8 4 14 3
13 -1 0 -32 -20 -69 -45z"/>
<path d="M3148 3473 c-8 -10 -45 -65 -83 -123 -78 -121 -181 -227 -258 -264
-99 -48 -217 -44 -268 10 -22 24 -24 33 -22 117 1 90 1 91 -13 57 -9 -19 -19
-84 -24 -145 -6 -60 -15 -129 -21 -152 -14 -50 -50 -93 -79 -93 -23 0 -23 0
-9 37 11 28 41 294 35 301 -12 11 -44 -112 -45 -168 -1 -93 -11 -152 -29 -173
-19 -21 -8 -34 34 -43 26 -5 35 -1 56 25 15 17 36 60 48 96 l22 65 36 -29 c75
-59 156 -63 259 -15 71 34 145 117 228 260 76 130 128 194 155 194 17 0 34 36
24 52 -9 13 -30 9 -46 -9z"/>
<path d="M3297 3382 c-16 -63 -37 -241 -37 -301 l1 -26 13 31 c13 29 51 352
43 360 -2 2 -11 -27 -20 -64z"/>
<path d="M2813 3425 c-25 -11 -43 -32 -43 -51 0 -2 16 -4 35 -4 40 0 45 -12
13 -34 l-22 -16 21 0 c47 0 87 101 44 113 -10 2 -32 -1 -48 -8z"/>
<path d="M2244 3397 c-33 -30 -35 -34 -24 -59 11 -24 9 -31 -19 -70 -17 -24
-41 -76 -52 -116 -24 -85 -20 -94 48 -123 24 -10 43 -23 43 -30 0 -24 -43 -86
-76 -108 -46 -32 -133 -40 -169 -17 -13 9 -32 30 -40 47 -21 39 -7 114 36 194
16 30 25 55 20 55 -6 0 -29 -38 -52 -84 -72 -145 -63 -257 24 -299 75 -37 175
10 230 108 33 61 71 180 63 200 -3 9 -26 24 -51 35 -41 17 -45 23 -39 42 10
35 42 76 64 83 30 9 100 95 100 121 0 16 -10 28 -30 39 -38 20 -35 20 -76 -18z"/>
<path d="M3988 3409 c-26 -14 -22 -29 7 -29 29 0 33 -15 8 -29 -15 -9 -16 -10
-2 -11 22 0 49 32 49 58 0 24 -31 30 -62 11z"/>
<path d="M2101 3356 c-1 -14 -6 -17 -24 -12 -16 4 -26 -1 -35 -15 -7 -11 -17
-17 -22 -14 -6 3 -10 -1 -10 -9 0 -9 9 -16 20 -16 11 0 20 5 20 10 0 6 11 10
25 10 28 0 40 18 32 47 -4 17 -5 17 -6 -1z"/>
<path d="M3436 3178 c-9 -68 -16 -172 -16 -231 0 -101 2 -109 25 -132 28 -29
43 -30 89 -11 55 23 204 185 190 207 -3 5 -34 9 -69 9 -35 0 -67 5 -70 11 -10
16 27 51 90 84 57 30 71 45 86 97 l8 29 -35 -30 c-19 -17 -39 -31 -45 -31 -6
0 -35 -24 -66 -52 -53 -51 -94 -109 -108 -155 -6 -22 -4 -23 65 -23 84 0 89
-12 20 -47 -55 -28 -125 -31 -139 -5 -18 33 -23 148 -11 271 6 68 9 125 7 127
-2 3 -12 -51 -21 -118z"/>
<path d="M3176 3245 c-23 -55 -34 -102 -41 -185 -9 -102 -22 -144 -58 -180
-38 -39 -61 -40 -53 -2 3 15 10 70 16 122 6 52 15 116 19 142 4 26 4 45 0 42
-18 -11 -48 -118 -54 -191 -10 -118 -25 -196 -42 -215 -14 -15 -12 -17 20 -23
74 -14 129 37 166 155 17 56 55 358 45 369 -1 2 -10 -13 -18 -34z"/>
<path d="M3957 3213 c-22 -51 -35 -112 -42 -205 -8 -88 -35 -152 -77 -176 -15
-9 -30 -14 -33 -10 -3 3 -1 27 5 53 6 26 15 92 20 146 5 54 12 111 15 126 3
17 -5 6 -21 -27 -19 -41 -29 -85 -40 -188 -7 -74 -20 -148 -29 -165 -19 -38
-20 -34 15 -42 97 -21 172 104 190 315 5 58 12 129 16 158 3 28 4 52 2 52 -3
0 -12 -17 -21 -37z"/>
<path d="M4072 3123 c-11 -49 -23 -126 -27 -173 -3 -47 -8 -105 -10 -130 l-5
-45 16 35 c15 31 28 124 49 333 4 37 5 67 2 67 -2 0 -13 -39 -25 -87z"/>
<path d="M3277 2961 c-22 -37 -21 -47 3 -78 11 -14 20 -35 20 -47 0 -27 -41
-67 -98 -96 -59 -29 -47 -36 23 -14 48 15 60 24 80 59 43 76 49 109 26 160
-11 25 -24 45 -28 45 -5 0 -16 -13 -26 -29z"/>
<path d="M2836 2858 c-19 -32 -22 -46 -15 -61 9 -15 6 -24 -12 -43 -18 -19
-19 -24 -6 -24 8 0 25 12 37 27 17 22 20 36 16 64 -4 26 -1 40 9 49 17 14 20
30 6 30 -6 0 -21 -19 -35 -42z"/>
<path d="M2716 2814 c-4 -9 -12 -14 -22 -10 -8 3 -28 -4 -44 -15 -16 -12 -36
-19 -44 -16 -9 4 -16 2 -16 -3 0 -5 -10 -19 -22 -31 l-23 -21 32 16 c18 9 38
16 46 16 8 0 20 7 27 15 7 8 20 15 30 15 18 0 57 37 48 45 -3 3 -8 -2 -12 -11z"/>
<path d="M2127 2685 l-27 -34 -35 16 -35 17 -30 -35 c-36 -42 -37 -53 -5 -67
39 -18 52 -15 75 18 21 29 22 29 50 15 16 -8 31 -15 34 -15 3 0 20 19 36 42
l31 42 -23 18 c-32 24 -39 23 -71 -17z"/>
<path d="M3707 2525 c-8 -18 11 -31 25 -17 11 11 3 32 -12 32 -4 0 -10 -7 -13
-15z"/>
<path d="M3740 2475 c-9 -10 -17 -12 -30 -5 -14 7 -20 6 -24 -7 -9 -23 9 -39
28 -24 8 7 24 10 34 7 24 -8 37 18 18 33 -10 8 -17 7 -26 -4z"/>
<path d="M3460 2465 c0 -8 7 -15 16 -15 9 0 18 -8 21 -18 4 -17 8 -16 34 10
33 34 35 38 14 38 -7 0 -18 -8 -24 -17 -9 -17 -10 -17 -16 0 -9 21 -45 23 -45
2z"/>
<path d="M2465 2440 c-4 -6 1 -17 11 -24 14 -11 20 -10 34 3 19 18 15 38 -4
22 -9 -7 -16 -7 -23 0 -8 8 -13 7 -18 -1z"/>
<path d="M2973 2343 c1 -113 -7 -133 -54 -133 -24 0 -29 4 -29 23 0 23 -16 47
-32 47 -9 0 -38 -54 -38 -70 0 -6 14 -16 30 -21 34 -12 36 -19 16 -58 -17 -33
-50 -56 -97 -69 -30 -9 -31 -10 -9 -12 58 -5 89 18 117 86 15 37 22 44 46 44
19 0 31 7 39 25 12 27 28 24 28 -5 0 -11 11 -27 25 -36 37 -24 279 -17 319 10
25 16 29 16 39 2 11 -15 20 -15 104 1 84 15 94 15 116 0 17 -11 27 -13 35 -5
15 15 3 38 -24 48 -27 11 -42 55 -27 79 17 28 41 24 58 -8 17 -35 39 -39 73
-15 21 15 25 15 41 0 22 -20 35 -20 51 -1 10 12 10 15 -2 15 -8 0 -23 9 -32
19 -17 19 -18 19 -37 0 -26 -26 -41 -24 -73 11 -20 24 -30 28 -44 21 -31 -17
-52 -47 -55 -81 -2 -33 -4 -34 -72 -52 -78 -19 -105 -16 -105 13 0 19 0 19
-20 -1 -29 -29 -62 -35 -202 -35 -106 0 -130 3 -144 17 -12 12 -21 50 -29 130
l-13 113 1 -102z m-96 -108 c3 -9 3 -18 1 -21 -9 -9 -38 8 -38 22 0 19 29 18
37 -1z"/>
<path d="M3254 2400 c5 -35 3 -41 -18 -56 -14 -8 -29 -13 -35 -10 -5 3 -12 -1
-15 -10 -5 -12 -1 -14 17 -9 37 12 67 46 67 77 0 19 5 28 16 28 8 0 12 5 9 10
-3 6 -15 10 -27 10 -18 0 -20 -4 -14 -40z"/>
<path d="M2651 2397 c-9 -12 -8 -16 3 -20 19 -7 32 11 19 24 -6 6 -14 5 -22
-4z"/>
<path d="M3177 2383 c-3 -5 1 -14 9 -21 12 -11 14 -9 14 8 0 20 -14 27 -23 13z"/>
<path d="M3806 2333 c-4 -9 -2 -21 4 -27 7 -7 10 -2 10 17 0 31 -5 34 -14 10z"/>
<path d="M2727 2286 c-3 -8 1 -22 8 -33 13 -17 14 -16 15 9 0 30 -15 46 -23
24z"/>
<path d="M2403 2284 c-26 -11 -12 -24 27 -24 22 0 40 -2 40 -5 0 -3 -15 -19
-32 -36 l-33 -31 40 26 c53 35 65 33 65 -9 0 -48 18 -54 125 -43 91 10 115 19
115 45 0 11 -4 11 -20 3 -11 -6 -59 -14 -105 -17 l-84 -6 -11 27 c-13 36 -15
34 24 42 19 3 37 11 39 17 3 9 -23 13 -87 14 -50 1 -97 -1 -103 -3z"/>
<path d="M2395 2169 c-4 -6 -5 -12 -2 -15 2 -3 7 2 10 11 7 17 1 20 -8 4z"/>
<path d="M2381 2103 c-1 -56 15 -89 54 -108 39 -18 117 -18 165 0 34 12 33 13
-40 12 -109 0 -156 28 -171 101 l-7 37 -1 -42z"/>
<path d="M2487 2106 c-6 -15 1 -26 15 -26 11 0 10 27 -1 34 -5 3 -11 0 -14 -8z"/>
<path d="M3316 2095 c-2 -7 2 -19 10 -25 8 -7 14 -10 14 -7 0 3 3 12 6 20 3 8
-1 17 -10 20 -8 3 -17 0 -20 -8z"/>
<path d="M5133 4078 l-322 -169 16 -33 15 -33 222 104 c121 58 240 113 262
123 34 15 50 33 88 95 26 43 46 78 44 79 -2 2 -148 -73 -325 -166z"/>
<path d="M4107 4205 c-15 -11 -16 -17 -7 -34 9 -18 13 -19 30 -8 23 14 24 18
8 40 -11 14 -16 14 -31 2z"/>
<path d="M4374 4206 c-3 -8 -2 -21 2 -28 5 -7 7 -26 5 -41 -2 -26 0 -28 21
-21 28 9 38 9 62 -1 14 -6 17 -5 14 6 -3 9 -18 14 -41 13 -35 -1 -35 -1 -34
39 2 41 -17 63 -29 33z"/>
<path d="M3715 4187 c-15 -12 -17 -19 -9 -36 8 -20 11 -20 29 -8 15 12 17 19
9 36 -8 20 -11 20 -29 8z"/>
<path d="M1511 4008 c-7 -79 -9 -152 -4 -163 5 -13 12 37 20 135 6 85 8 159 4
163 -4 4 -13 -57 -20 -135z"/>
<path d="M1587 4139 c-13 -8 -15 -14 -7 -29 11 -20 50 -17 50 5 0 21 -23 35
-43 24z"/>
<path d="M4284 4098 c-4 -7 2 -18 14 -26 31 -21 27 -35 -8 -30 -19 3 -27 1
-22 -4 5 -5 28 -12 51 -15 39 -5 41 -4 41 20 0 16 -10 34 -26 46 -31 24 -40
26 -50 9z"/>
<path d="M3855 4090 c17 -4 46 -8 65 -8 28 -1 31 1 15 8 -11 5 -40 8 -65 8
-41 0 -42 -1 -15 -8z"/>
<path d="M3980 4063 c-65 -24 -65 -97 0 -151 51 -44 147 -65 191 -42 14 8 25
7 43 -5 21 -14 24 -23 23 -71 -1 -63 10 -78 59 -78 58 0 67 42 20 92 -21 23
-21 24 -2 38 23 16 82 19 91 3 4 -5 -5 -28 -20 -49 -22 -32 -25 -42 -15 -59 9
-18 8 -22 -7 -28 -10 -3 -28 -15 -40 -26 -46 -41 -19 -137 37 -137 17 0 19 -3
8 -20 -22 -36 1 -71 97 -142 81 -61 125 -82 125 -60 0 4 -16 17 -35 29 -19 13
-38 35 -41 49 -8 30 5 75 23 81 15 5 83 -55 83 -73 0 -8 5 -14 10 -14 6 0 10
13 10 30 0 70 -140 97 -174 33 l-14 -27 -26 29 c-30 32 -34 69 -8 84 16 10 15
10 -3 11 -11 0 -31 7 -43 16 -19 13 -23 23 -20 61 5 71 26 76 78 19 50 -54 87
-76 128 -76 28 0 72 31 72 51 0 43 -74 87 -164 98 -43 5 -52 10 -54 29 -2 12
6 38 18 56 l21 34 -23 16 c-25 18 -87 21 -138 6 -26 -8 -39 -6 -58 6 -21 14
-22 17 -9 32 29 34 30 60 2 78 -20 13 -33 15 -58 8 -42 -13 -47 -44 -11 -77
l27 -25 -22 -12 c-45 -24 -144 21 -181 83 -26 42 -25 53 5 82 24 25 23 28 -5
18z m218 -107 c3 -12 -1 -17 -10 -14 -7 3 -15 13 -16 22 -3 12 1 17 10 14 7
-3 15 -13 16 -22z m112 -203 c0 -7 -4 -13 -9 -13 -16 0 -33 30 -26 47 6 17 7
17 21 -1 8 -11 14 -26 14 -33z m211 -56 c46 -31 67 -70 50 -91 -12 -14 -16
-14 -43 2 -31 17 -98 89 -98 104 0 17 58 7 91 -15z"/>
<path d="M4523 3983 c1 -10 -2 -18 -8 -18 -5 0 -9 6 -9 13 2 9 -4 8 -17 -4
-13 -12 -29 -15 -56 -11 l-38 5 35 -15 c19 -8 43 -20 53 -25 12 -6 23 -4 32 4
8 7 21 19 30 26 13 11 13 17 4 28 -16 19 -29 18 -26 -3z"/>
<path d="M710 3974 c0 -1 16 -30 36 -63 l35 -60 165 -65 c90 -36 166 -66 168
-66 5 0 27 62 24 66 -7 5 -428 191 -428 188z"/>
<path d="M1623 3955 c15 -14 35 -25 43 -25 19 0 30 28 15 43 -8 8 -11 8 -11
-1 0 -14 -36 -16 -45 -2 -3 6 -12 10 -18 10 -7 0 1 -12 16 -25z"/>
<path d="M5090 3884 c-113 -51 -209 -94 -213 -96 -7 -3 11 -68 19 -68 2 0 78
30 168 66 l165 65 36 61 c19 33 34 61 33 62 -2 1 -95 -39 -208 -90z"/>
<path d="M1420 3938 c15 -19 12 -41 -5 -34 -12 4 -14 0 -9 -19 5 -19 2 -25
-11 -25 -9 0 -13 -4 -10 -10 10 -16 45 -12 45 5 0 8 6 24 12 35 11 17 9 23
-10 40 -12 11 -17 15 -12 8z"/>
<path d="M1860 3941 c0 -14 41 -41 62 -41 13 0 18 8 18 25 0 28 -15 33 -24 9
-6 -15 -8 -15 -31 0 -14 9 -25 12 -25 7z"/>
<path d="M4170 3831 c0 -8 -8 -20 -17 -27 -16 -12 -16 -13 9 -14 34 0 45 17
24 38 -12 12 -16 13 -16 3z"/>
<path d="M4513 3833 c-7 -2 -13 -12 -13 -21 0 -14 1 -14 13 0 6 9 19 18 27 21
13 5 13 5 0 5 -8 0 -21 -2 -27 -5z"/>
<path d="M4570 3816 c50 -48 177 -146 189 -146 13 0 13 2 1 14 -48 43 -182
146 -192 146 -8 0 -7 -5 2 -14z"/>
<path d="M1790 3796 c0 -8 5 -18 10 -21 6 -3 10 -1 10 5 0 8 10 10 28 6 26 -6
26 -6 8 9 -25 19 -56 19 -56 1z"/>
<path d="M1276 3762 c-15 -17 -15 -21 -1 -32 11 -9 12 -17 4 -32 -9 -16 -7
-24 5 -36 15 -15 17 -15 33 1 16 15 16 18 0 35 -15 16 -15 20 -1 33 13 14 13
17 -4 32 -18 16 -20 16 -36 -1z"/>
<path d="M1404 3756 c-48 -21 -51 -36 -15 -68 40 -36 84 -36 89 0 2 13 -4 32
-14 43 -15 17 -15 19 0 25 9 3 23 1 31 -6 15 -13 40 -82 51 -142 5 -31 3 -38
-10 -38 -25 0 -73 -27 -80 -45 -8 -21 45 -75 73 -75 23 0 37 36 28 70 -9 33
19 23 36 -12 25 -54 39 -119 41 -189 1 -53 -3 -71 -18 -88 -25 -28 -73 -27
-105 2 l-26 22 20 -24 c26 -31 79 -53 110 -45 36 9 55 52 55 126 0 79 -21 158
-54 209 -14 21 -26 45 -26 53 0 35 -44 151 -65 172 -28 27 -72 31 -121 10z
m36 -50 c0 -18 -16 -29 -30 -21 -13 8 -1 35 16 35 8 0 14 -6 14 -14z m76 -223
c-11 -11 -19 6 -11 24 8 17 8 17 12 0 3 -10 2 -21 -1 -24z"/>
<path d="M853 3736 c3 -8 17 -32 31 -54 22 -35 34 -42 103 -64 l78 -24 13 29
c15 35 12 39 -48 60 -25 8 -76 26 -114 41 -50 19 -67 22 -63 12z"/>
<path d="M5043 3705 c-62 -22 -115 -44 -118 -47 -3 -2 0 -18 5 -35 l11 -30 82
25 c80 24 83 26 110 74 16 28 27 51 25 53 -2 1 -54 -17 -115 -40z"/>
<path d="M1603 3675 c32 -28 55 -32 63 -10 9 23 -5 38 -22 24 -11 -9 -21 -9
-42 0 l-27 11 28 -25z"/>
<path d="M4210 3680 c19 -11 44 -19 55 -19 13 0 6 7 -20 19 -53 24 -80 24 -35
0z"/>
<path d="M4640 3599 c0 -15 5 -20 22 -17 34 5 37 38 4 38 -20 0 -26 -5 -26
-21z"/>
<path d="M1370 3595 c-11 -13 -10 -18 6 -30 16 -12 21 -12 33 0 12 11 12 17 1
29 -16 20 -24 20 -40 1z"/>
<path d="M1217 3586 c-3 -7 0 -19 6 -25 16 -16 27 -14 21 4 -4 8 -1 15 5 15 6
0 11 -6 11 -14 0 -7 9 -16 19 -19 11 -3 29 -20 40 -38 12 -19 21 -27 21 -19 0
8 -9 30 -20 48 -11 18 -20 39 -20 47 0 20 -76 21 -83 1z"/>
<path d="M4680 3560 c0 -24 35 -28 44 -4 9 23 8 24 -19 24 -18 0 -25 -5 -25
-20z"/>
<path d="M961 3549 c8 -16 7 -25 -6 -39 -15 -17 -14 -18 20 -24 20 -4 42 -9
49 -12 9 -3 16 6 20 27 3 18 4 34 2 36 -2 3 -25 11 -50 18 -45 14 -46 14 -35
-6z"/>
<path d="M5007 3554 c-47 -15 -48 -16 -42 -47 4 -18 8 -33 9 -34 0 -1 22 4 49
10 44 10 46 12 31 28 -12 14 -13 22 -4 38 6 12 9 21 8 20 -2 0 -25 -7 -51 -15z"/>
<path d="M4310 3520 c0 -10 -8 -21 -17 -24 -10 -2 -5 -4 12 -3 33 2 47 30 20
40 -10 5 -15 0 -15 -13z"/>
<path d="M4742 3483 c-8 -3 -5 -11 10 -24 l23 -18 -25 -1 c-25 -2 -25 -2 3
-12 36 -13 54 1 38 30 -12 22 -30 31 -49 25z"/>
<path d="M797 3421 l-48 -28 127 -22 c69 -12 128 -20 130 -18 2 2 7 17 10 34
l6 30 -72 17 c-94 21 -97 21 -153 -13z"/>
<path d="M1387 3443 c-13 -12 -7 -25 8 -19 8 3 21 -4 30 -17 17 -24 21 -6 5
24 -11 19 -31 25 -43 12z"/>
<path d="M5051 3433 c-63 -15 -63 -15 -57 -46 3 -17 8 -32 10 -34 2 -2 61 6
130 18 l127 22 -48 28 c-54 32 -70 33 -162 12z"/>
<path d="M1212 3413 c-28 -4 -31 -7 -21 -19 6 -8 24 -14 39 -14 35 0 271 -56
316 -75 19 -8 34 -12 34 -10 0 13 -81 48 -151 66 -147 36 -160 40 -154 49 6
10 -2 10 -63 3z"/>
<path d="M4790 3359 c0 -6 -7 -9 -14 -6 -10 4 -13 1 -9 -9 3 -9 -2 -14 -16
-14 -11 0 -76 -25 -143 -56 -68 -30 -108 -53 -90 -50 19 3 80 26 137 51 109
47 125 51 141 35 7 -7 10 2 10 25 0 19 -4 35 -8 35 -4 0 -8 -5 -8 -11z"/>
<path d="M4827 3350 c3 -11 12 -20 19 -20 20 0 17 18 -5 29 -16 9 -18 8 -14
-9z"/>
<path d="M610 3318 c-102 -60 -117 -52 140 -78 127 -13 232 -21 234 -19 2 2 7
18 10 34 l7 30 -163 23 c-90 13 -170 25 -178 27 -8 2 -31 -6 -50 -17z"/>
<path d="M4417 3318 c-4 -14 -4 -34 -1 -43 7 -18 35 -17 42 3 2 7 -2 11 -9 10
-7 -2 -15 10 -19 27 l-6 30 -7 -27z"/>
<path d="M5182 3312 l-173 -26 7 -31 c3 -16 8 -32 10 -34 2 -2 107 6 234 19
126 13 229 24 227 26 -4 4 -129 74 -130 73 -1 -1 -80 -13 -175 -27z"/>
<path d="M1162 3302 c-9 -7 -8 -13 8 -27 15 -14 17 -21 9 -32 -9 -10 -7 -13 7
-13 40 0 47 16 18 39 -23 18 -26 24 -14 31 13 8 13 10 0 10 -8 0 -21 -4 -28
-8z"/>
<path d="M4371 3247 c-2 -103 58 -168 163 -175 54 -4 64 -1 89 22 48 45 31 84
-39 89 -37 2 -39 0 -42 -29 -2 -19 3 -36 12 -44 23 -18 19 -30 -9 -30 -71 0
-150 83 -166 175 l-6 40 -2 -48z m232 -91 c6 -15 -1 -26 -15 -26 -4 0 -8 9 -8
20 0 23 15 27 23 6z"/>
<path d="M1270 3261 c0 -4 20 -27 45 -50 32 -30 53 -41 75 -41 41 0 70 16 70
40 0 27 -14 32 -46 15 -41 -21 -56 -19 -102 15 -23 17 -42 26 -42 21z"/>
<path d="M4765 3240 c-7 -12 12 -40 26 -40 5 0 9 7 9 15 0 9 10 20 23 25 19 8
17 9 -15 9 -20 1 -40 -4 -43 -9z"/>
<path d="M4686 3211 c28 -26 99 -71 112 -71 8 0 -10 18 -41 40 -30 22 -61 40
-68 40 -8 0 -9 -3 -3 -9z"/>
<path d="M320 3155 c-45 -27 -67 -45 -55 -45 11 0 169 -7 350 -15 182 -8 338
-15 348 -15 13 0 17 8 17 34 0 40 19 36 -290 61 -102 8 -210 17 -240 19 -51 5
-61 2 -130 -39z"/>
<path d="M5310 3175 c-140 -13 -261 -24 -267 -24 -14 -1 -19 -71 -5 -71 39 0
716 31 718 33 7 7 -152 87 -170 86 -11 -1 -136 -12 -276 -24z"/>
<path d="M88 3022 c-38 -20 -68 -39 -68 -42 0 -3 30 -22 68 -41 l67 -35 375
12 c206 7 392 13 413 13 l37 1 0 49 0 48 -122 7 c-68 3 -244 8 -393 11 -148 4
-279 8 -290 10 -11 2 -50 -12 -87 -33z"/>
<path d="M5480 3044 c-201 -6 -384 -12 -407 -13 l-43 -1 0 -50 0 -50 38 -1
c20 0 206 -6 412 -13 l375 -12 68 35 c37 19 67 38 67 41 0 6 -135 81 -141 78
-2 0 -168 -7 -369 -14z"/>
<path d="M4303 2163 c-5 -43 -7 -82 -4 -88 8 -15 30 138 22 153 -4 7 -12 -22
-18 -65z"/>
<path d="M1796 2191 c-3 -4 7 -14 22 -21 l27 -13 -30 -7 -30 -6 27 -7 c52 -14
76 14 40 46 -20 18 -48 22 -56 8z"/>
<path d="M1687 2173 c-14 -13 -6 -33 12 -33 16 0 31 18 31 36 0 7 -36 5 -43
-3z"/>
<path d="M1522 2147 c-12 -13 -22 -32 -22 -43 1 -37 55 -84 97 -84 13 0 9 6
-15 21 -18 12 -40 35 -48 51 -14 27 -14 32 1 54 20 30 15 31 -13 1z"/>
<path d="M905 1994 l-260 -122 -48 -77 c-27 -42 -47 -78 -45 -79 9 -7 643 336
640 346 -2 6 -8 21 -15 33 -12 21 -17 19 -272 -101z"/>
<path d="M4827 2084 l-16 -32 322 -170 c177 -93 323 -168 325 -166 2 1 -18 37
-45 79 l-48 77 -261 123 -262 122 -15 -33z"/>
<path d="M4171 2086 c-14 -15 -21 -32 -18 -40 9 -22 24 -20 30 4 7 27 24 25
30 -2 3 -13 4 -5 4 16 -2 48 -16 54 -46 22z"/>
<path d="M4390 2091 c-5 -11 -10 -38 -10 -61 0 -51 -15 -80 -40 -80 -28 0 -25
-6 20 -49 44 -42 48 -43 24 -6 -12 18 -13 29 -6 38 6 6 12 26 14 42 3 27 7 30
41 33 33 3 37 6 37 32 0 19 -9 35 -26 49 -33 26 -41 26 -54 2z m44 -30 c3 -5
-1 -12 -10 -15 -25 -10 -34 -7 -34 9 0 16 35 21 44 6z"/>
<path d="M1652 2065 c-9 -19 -8 -23 2 -19 7 3 21 -4 31 -16 10 -11 25 -20 33
-20 11 0 8 8 -11 28 -15 15 -27 33 -27 40 0 20 -16 13 -28 -13z"/>
<path d="M1846 2074 c-19 -19 -12 -34 15 -34 10 0 19 -4 19 -10 0 -15 36 -12
49 4 10 12 8 13 -10 9 -17 -5 -21 -3 -17 9 5 11 0 14 -20 10 -20 -4 -24 -2
-19 12 8 20 3 20 -17 0z"/>
<path d="M1745 2049 c-11 -17 1 -21 15 -4 8 9 8 15 2 15 -6 0 -14 -5 -17 -11z"/>
<path d="M855 1815 l-360 -194 -42 -68 -42 -68 76 -3 75 -3 351 217 c194 120
354 219 356 220 5 5 -42 94 -49 93 -3 0 -167 -88 -365 -194z"/>
<path d="M4761 1965 c-13 -25 -22 -47 -20 -49 2 -1 162 -100 356 -220 l351
-217 75 3 76 3 -42 68 -42 68 -363 194 c-200 107 -364 195 -365 195 -1 0 -13
-20 -26 -45z"/>
<path d="M1803 1962 c-10 -10 -28 -31 -40 -45 -13 -15 -31 -27 -41 -27 -20 0
-62 39 -62 58 0 17 -20 15 -27 -4 -8 -22 35 -64 67 -64 25 0 27 -3 26 -37 -1
-36 0 -38 34 -41 34 -3 35 -2 10 10 -38 20 -35 39 15 106 44 61 52 80 18 44z"/>
<path d="M1918 1958 c-26 -21 -120 -138 -110 -138 5 0 30 27 56 60 26 33 53
60 61 60 7 0 15 7 19 15 7 18 -5 19 -26 3z"/>
<path d="M4440 1958 c0 -26 35 -62 53 -55 25 9 22 40 -2 32 -13 -4 -24 1 -35
17 -12 17 -16 18 -16 6z"/>
<path d="M4217 1953 c-4 -3 -7 -15 -7 -26 0 -13 5 -17 16 -13 9 3 18 6 20 6 2
0 4 9 4 20 0 19 -20 27 -33 13z"/>
<path d="M1530 1930 c0 -12 7 -20 16 -20 9 0 18 -9 21 -19 6 -24 33 -16 33 9
0 13 -5 17 -20 13 -15 -4 -20 0 -20 16 0 12 -6 21 -15 21 -8 0 -15 -9 -15 -20z"/>
<path d="M3980 1909 c0 -17 3 -19 14 -10 9 8 16 8 20 2 4 -5 -1 -14 -10 -19
-11 -6 -13 -11 -5 -16 16 -10 14 -42 -5 -78 -9 -16 -12 -28 -7 -25 5 3 22 31
37 61 27 53 28 57 12 81 -21 31 -56 34 -56 4z"/>
<path d="M1958 1888 c-30 -24 -123 -143 -99 -128 21 14 128 140 119 140 -2 0
-11 -6 -20 -12z"/>
<path d="M987 1683 c-169 -107 -307 -196 -305 -198 2 -1 46 1 98 4 l95 6 212
148 c116 81 221 155 232 165 l21 17 -22 27 -23 27 -308 -196z"/>
<path d="M4691 1851 l-21 -30 97 -69 c54 -37 159 -111 233 -163 l135 -94 95
-6 c52 -3 96 -5 98 -4 2 2 -127 85 -285 185 -158 101 -298 189 -309 197 -20
13 -24 12 -43 -16z"/>
<path d="M4110 1856 c0 -16 26 -46 41 -46 5 0 9 -9 9 -20 0 -23 -73 -80 -102
-80 -26 0 -22 -28 6 -41 48 -22 38 -123 -17 -179 l-31 -32 34 14 c24 9 41 27
54 53 18 36 19 43 5 96 l-15 58 43 30 c52 37 56 67 18 124 -27 38 -45 48 -45
23z"/>
<path d="M2069 1852 c-11 -2 -15 -10 -12 -23 6 -21 11 -23 32 -10 18 11 2 38
-20 33z"/>
<path d="M4387 1824 c-34 -66 -103 -102 -137 -71 -10 8 -9 5 2 -13 23 -37 59
-37 101 -1 36 32 62 81 55 103 -3 8 -11 0 -21 -18z"/>
<path d="M1625 1795 c22 -8 54 -14 70 -14 26 0 24 2 -15 15 -25 7 -56 13 -70
13 -20 -1 -17 -4 15 -14z"/>
<path d="M2250 1785 c-15 -18 -5 -49 14 -42 8 3 17 -1 20 -9 7 -19 20 -18 47
7 23 19 23 20 2 10 -23 -12 -40 0 -27 20 5 8 1 8 -14 0 -29 -16 -35 -14 -29 9
6 24 4 25 -13 5z"/>
<path d="M3874 1770 c-5 -24 -11 -29 -23 -24 -39 16 -51 16 -51 0 0 -10 9 -16
24 -16 13 0 31 -3 40 -6 12 -5 16 1 16 24 0 17 5 32 12 34 9 3 9 6 0 12 -8 5
-14 -3 -18 -24z"/>
<path d="M1970 1767 c-32 -16 -33 -51 -2 -55 26 -4 29 -17 5 -30 -10 -6 -27
-6 -45 0 -37 13 -44 5 -24 -24 21 -30 20 -38 -6 -38 -44 1 -104 36 -118 69
-11 28 -11 34 6 54 11 13 7 10 -8 -5 -16 -16 -28 -37 -28 -49 0 -29 41 -65 90
-80 36 -11 46 -11 69 2 14 8 26 21 26 29 0 8 12 20 27 27 29 12 58 59 58 93 0
23 -14 25 -50 7z m20 -17 c0 -5 -4 -10 -10 -10 -5 0 -10 5 -10 10 0 6 5 10 10
10 6 0 10 -4 10 -10z"/>
<path d="M1186 1632 l-188 -137 71 -3 72 -3 140 111 139 112 -21 29 c-11 16
-21 29 -22 29 -1 0 -87 -62 -191 -138z"/>
<path d="M4611 1741 l-21 -29 139 -112 140 -111 72 3 71 3 -158 115 c-87 63
-172 125 -190 137 l-33 23 -20 -29z"/>
<path d="M2302 1681 c-17 -10 -4 -41 14 -34 15 6 19 29 6 37 -4 2 -14 1 -20
-3z"/>
<path d="M3726 1666 c9 -36 107 -191 112 -177 2 6 -24 55 -58 108 -36 58 -58
86 -54 69z"/>
<path d="M4193 1673 c-7 -2 -13 -13 -13 -24 0 -12 -7 -19 -20 -19 -15 0 -20
-7 -20 -26 0 -20 4 -25 16 -20 9 3 18 6 20 6 2 0 4 9 4 20 0 15 7 20 26 20 20
0 25 4 22 22 -3 23 -15 30 -35 21z"/>
<path d="M2344 1659 c-10 -17 13 -36 27 -22 12 12 4 33 -11 33 -5 0 -12 -5
-16 -11z"/>
<path d="M1370 1589 c-128 -106 -124 -99 -54 -99 61 0 62 1 125 58 l63 59 -17
26 c-10 15 -21 27 -25 27 -4 0 -45 -32 -92 -71z"/>
<path d="M3896 1645 c4 -8 24 -18 45 -21 72 -12 72 -54 -2 -84 -17 -8 -29 -20
-29 -31 0 -22 4 -23 33 -8 76 39 89 89 35 134 -33 28 -91 35 -82 10z"/>
<path d="M4527 1642 c-10 -10 -17 -23 -17 -29 0 -6 28 -36 62 -67 61 -55 62
-56 122 -56 l61 1 -35 30 c-69 60 -167 139 -172 139 -3 0 -12 -8 -21 -18z"/>
<path d="M2140 1640 c0 -5 -20 -10 -44 -10 -28 0 -52 -7 -67 -19 -23 -19 -24
-19 -5 -40 11 -12 31 -21 46 -21 24 0 27 -3 22 -25 -3 -19 2 -28 25 -41 27
-16 29 -20 20 -53 -12 -47 6 -99 28 -81 7 6 15 21 17 32 2 12 15 30 30 41 23
17 31 19 53 9 14 -7 25 -20 25 -31 0 -30 47 -61 92 -61 21 0 56 -9 78 -20 49
-25 82 -25 103 -2 24 27 21 32 -11 20 -16 -6 -41 -8 -56 -4 -26 6 -27 8 -12
25 9 10 16 32 16 49 0 44 -31 43 -77 -3 -41 -41 -74 -41 -113 -1 l-22 24 37
12 c27 9 41 21 51 46 31 75 10 115 -49 91 -19 -8 -37 -19 -40 -23 -10 -18 13
-54 38 -60 14 -3 25 -10 25 -15 0 -15 -43 -27 -70 -19 -28 8 -66 -3 -92 -27
-28 -25 -34 -6 -10 27 12 16 22 31 22 34 0 2 -18 7 -41 11 -22 4 -43 14 -46
22 -3 8 6 40 20 69 15 30 22 54 17 54 -6 0 -10 -4 -10 -10z m-26 -29 c9 -13
-4 -41 -19 -41 -6 0 -20 9 -29 19 -13 15 -14 20 -4 24 21 9 46 8 52 -2z m234
-70 c3 -8 -1 -12 -9 -9 -7 2 -15 10 -17 17 -3 8 1 12 9 9 7 -2 15 -10 17 -17z
m129 -132 c17 -17 3 -49 -22 -49 -30 0 -42 30 -19 47 22 16 27 16 41 2z"/>
<path d="M3611 1621 c-1 -18 -5 -22 -21 -18 -21 6 -25 0 -11 -21 11 -18 75 17
78 44 2 10 0 13 -3 7 -3 -7 -12 -13 -19 -13 -7 0 -16 6 -18 13 -3 6 -6 1 -6
-12z"/>
<path d="M2776 1559 c-39 -44 -55 -69 -43 -69 8 0 99 112 94 116 -2 3 -25 -18
-51 -47z"/>
<path d="M3460 1595 c0 -8 7 -15 15 -15 8 0 15 -4 15 -10 0 -5 -6 -10 -14 -10
-8 0 -12 -8 -9 -23 3 -15 -5 -35 -23 -58 -16 -20 -5 -12 24 17 50 49 51 53 41
83 -11 32 -49 45 -49 16z"/>
<path d="M2617 1593 c-12 -11 -8 -23 8 -23 8 0 15 -4 15 -10 0 -5 -6 -10 -14
-10 -7 0 -16 -9 -19 -19 -2 -11 -22 -29 -43 -40 -53 -27 -31 -27 33 1 54 24
70 49 58 89 -6 19 -26 25 -38 12z"/>
<path d="M1505 1530 l-39 -40 27 0 c21 0 27 -5 27 -22 0 -21 3 -19 37 15 l38
37 -26 25 -25 25 -39 -40z"/>
<path d="M1839 1560 c-6 -4 11 -10 37 -14 60 -8 89 -8 81 1 -11 10 -105 20
-118 13z"/>
<path d="M2781 1509 c-29 -33 -51 -62 -49 -65 7 -6 108 102 108 115 0 17 -2
15 -59 -50z"/>
<path d="M4440 1545 l-24 -26 37 -37 c33 -33 37 -34 37 -15 0 16 7 23 26 25
l25 3 -38 38 -39 37 -24 -25z"/>
<path d="M2496 1551 c-3 -5 1 -14 8 -20 16 -13 32 2 21 19 -8 12 -22 13 -29 1z"/>
<path d="M2870 1545 c-13 -16 -9 -18 28 -15 26 2 29 -15 5 -29 -11 -7 -13 -11
-5 -11 22 0 52 20 52 35 0 15 -30 35 -53 35 -8 0 -20 -7 -27 -15z"/>
<path d="M3310 1545 c-7 -9 -11 -18 -8 -20 3 -3 11 1 18 10 7 9 11 18 8 20 -3
3 -11 -1 -18 -10z"/>
<path d="M3690 1553 c0 -4 19 -35 42 -70 30 -47 38 -67 30 -75 -20 -20 -57 7
-101 74 -46 70 -51 66 -20 -16 24 -62 20 -99 -11 -116 -34 -18 -56 -3 -78 53
-11 29 -21 44 -21 34 -1 -10 -12 -33 -25 -50 -14 -18 -28 -44 -31 -59 -7 -26
-5 -28 25 -28 20 0 38 7 45 17 13 17 14 17 32 0 11 -9 26 -17 35 -17 18 0 53
38 62 67 7 21 9 22 31 7 13 -9 34 -14 47 -12 18 2 24 10 26 36 3 26 -6 49 -38
98 -41 61 -50 72 -50 57z m-140 -183 c12 -23 -3 -34 -40 -28 -19 3 -20 4 -5
26 20 27 31 28 45 2z"/>
<path d="M3048 1522 c-27 -15 -48 -31 -48 -35 0 -10 77 32 92 50 15 18 10 16
-44 -15z"/>
<path d="M3230 1525 c0 -8 8 -15 17 -15 9 0 25 -7 35 -17 15 -13 18 -13 18 -2
0 8 -13 22 -29 32 -36 21 -41 21 -41 2z"/>
<path d="M2681 1484 c-12 -48 -19 -208 -8 -189 7 14 27 216 21 224 -1 1 -7
-14 -13 -35z"/>
<path d="M1576 1419 c-55 -59 -56 -61 -56 -120 0 -32 2 -59 4 -59 2 0 40 44
85 99 74 91 79 100 63 113 -34 30 -40 27 -96 -33z"/>
<path d="M3944 1435 c-38 -47 -44 -73 -7 -32 25 27 57 77 50 77 -3 0 -22 -20
-43 -45z"/>
<path d="M4347 1460 l-27 -21 81 -100 c45 -54 83 -99 85 -99 2 0 4 27 4 60 0
59 -1 60 -57 121 l-58 61 -28 -22z"/>
<path d="M2564 1406 c-3 -8 -1 -23 5 -33 9 -15 10 -13 11 15 0 34 -7 42 -16
18z"/>
<path d="M3034 1409 c-10 -17 13 -36 27 -22 12 12 4 33 -11 33 -5 0 -12 -5
-16 -11z"/>
<path d="M3251 1389 c-1 -15 -8 -29 -16 -33 -20 -7 -49 -70 -42 -90 9 -22 44
-20 64 4 17 19 17 19 35 0 32 -34 108 -22 108 17 0 10 -5 11 -19 3 -11 -5 -33
-10 -50 -10 -27 0 -31 5 -49 53 -11 28 -22 59 -25 67 -3 9 -6 4 -6 -11z m17
-64 c4 -19 -13 -35 -40 -35 -23 0 -23 18 -1 42 19 22 37 19 41 -7z"/>
<path d="M1620 1250 l-111 -140 3 -72 3 -72 130 179 c164 225 152 204 124 226
-13 10 -27 19 -31 19 -3 0 -57 -63 -118 -140z"/>
<path d="M2807 1370 c-12 -14 -27 -20 -45 -18 -15 1 -26 -2 -25 -7 1 -6 4 -22
7 -35 4 -14 3 -30 -1 -36 -17 -25 -88 -64 -117 -64 -24 0 -27 -3 -16 -10 8 -5
28 -10 44 -10 35 0 106 67 106 100 0 20 34 59 53 60 4 0 7 -14 7 -31 0 -32 15
-69 34 -81 20 -14 53 -8 108 17 32 15 71 25 99 25 32 0 49 5 53 15 4 10 -1 15
-16 15 -11 0 -47 12 -79 26 -60 27 -102 27 -112 1 -3 -9 3 -14 21 -14 15 0 43
-7 62 -15 l35 -15 -57 -16 c-101 -30 -126 -19 -136 61 -7 52 -7 53 -25 32z"/>
<path d="M3377 1375 c-4 -9 -1 -26 5 -38 l13 -22 3 22 c2 12 -1 30 -6 39 -8
15 -10 15 -15 -1z"/>
<path d="M4241 1371 c-28 -22 -40 -1 124 -226 l130 -179 3 72 3 72 -111 140
c-61 77 -115 140 -118 140 -4 0 -18 -9 -31 -19z"/>
<path d="M2200 1321 c0 -9 110 -25 118 -16 9 9 -1 12 -60 19 -32 3 -58 2 -58
-3z"/>
<path d="M1676 1073 l-166 -238 0 -89 c0 -50 4 -86 8 -80 13 14 372 583 378
598 4 11 -34 46 -50 46 -2 0 -79 -107 -170 -237z"/>
<path d="M4132 1294 c-13 -9 -21 -22 -18 -29 6 -16 365 -585 378 -599 4 -6 8
30 8 80 l0 89 -166 238 c-91 130 -169 237 -173 237 -3 0 -17 -7 -29 -16z"/>
<path d="M2415 1260 c-10 -17 12 -37 25 -24 8 8 6 15 -4 23 -10 9 -16 9 -21 1z"/>
<path d="M2465 1251 c-3 -6 -2 -18 3 -27 7 -13 10 -13 20 -1 10 11 9 17 -2 26
-10 8 -16 9 -21 2z"/>
<path d="M1727 897 l-217 -351 0 -78 0 -79 50 28 c28 15 59 35 69 43 11 8 106
177 212 374 212 396 201 362 129 401 l-26 13 -217 -351z"/>
<path d="M4021 1224 c-30 -18 -41 -31 -36 -42 20 -53 380 -710 396 -722 10 -8
41 -28 69 -43 l50 -28 0 79 0 79 -216 349 c-119 192 -217 350 -218 351 -1 1
-21 -9 -45 -23z"/>
<path d="M3218 1194 c-27 -13 -48 -29 -48 -35 0 -5 22 2 50 18 27 15 50 31 50
36 0 9 3 10 -52 -19z"/>
<path d="M3366 1204 c-7 -19 1 -34 19 -34 18 0 26 25 12 39 -15 15 -24 14 -31
-5z"/>
<path d="M2816 1191 c-4 -6 -18 -8 -32 -5 -17 4 -24 2 -24 -8 0 -22 12 -29 27
-17 10 9 17 8 28 -1 12 -10 16 -9 21 5 8 20 -10 43 -20 26z"/>
<path d="M1908 852 c-91 -174 -165 -319 -163 -321 2 -2 37 17 76 41 l73 44
123 259 c67 143 122 263 123 266 0 6 -46 29 -58 29 -4 0 -82 -143 -174 -318z"/>
<path d="M3893 1158 c-13 -6 -23 -14 -23 -17 1 -3 56 -123 123 -266 l123 -259
73 -44 c39 -24 74 -42 76 -40 7 6 -330 638 -340 637 -5 0 -20 -5 -32 -11z"/>
<path d="M2193 1103 c-4 -9 -46 -105 -94 -213 -48 -107 -86 -196 -84 -198 1
-2 29 13 62 32 l60 35 61 158 c34 87 62 162 62 166 0 3 -14 14 -30 22 -28 15
-31 14 -37 -2z"/>
<path d="M3778 1104 c-16 -8 -28 -18 -28 -22 0 -3 28 -78 62 -165 l61 -158 60
-35 c33 -19 61 -33 62 -32 3 3 -179 415 -186 422 -2 3 -16 -2 -31 -10z"/>
<path d="M2282 947 c-23 -63 -42 -117 -42 -120 0 -8 86 41 98 56 12 14 55 157
49 163 -2 2 -17 6 -34 10 l-30 6 -41 -115z"/>
<path d="M3638 1053 c-10 -2 -18 -7 -18 -10 0 -16 43 -150 52 -160 12 -15 98
-64 98 -56 0 3 -19 57 -41 119 -42 116 -45 119 -91 107z"/>
<path d="M2441 1006 c-5 -11 -11 -34 -15 -49 -6 -26 -5 -27 15 -17 11 7 22 10
23 8 2 -2 8 -11 13 -22 9 -15 12 -11 22 28 13 54 11 62 -25 69 -19 3 -27 0
-33 -17z"/>
<path d="M3535 1023 c-33 -8 -37 -18 -24 -68 10 -40 13 -44 22 -29 5 11 11 20
13 22 1 2 12 -1 23 -8 20 -10 21 -9 15 17 -9 35 -23 73 -26 72 -2 -1 -12 -3
-23 -6z"/>
<path d="M2565 986 c-2 -6 -10 -43 -19 -83 -15 -72 -15 -72 10 -117 14 -26 29
-46 33 -46 7 0 41 195 41 231 0 19 -60 33 -65 15z"/>
<path d="M3399 993 l-26 -4 19 -117 c26 -157 24 -155 58 -94 l29 53 -18 81
c-18 85 -20 87 -62 81z"/>
<path d="M2697 948 c-3 -13 -15 -91 -27 -174 l-22 -152 35 -63 35 -62 6 34 c3
19 12 106 21 194 9 88 18 179 22 203 l5 42 -35 0 c-28 0 -36 -4 -40 -22z"/>
<path d="M3243 928 c4 -24 13 -115 22 -203 9 -88 18 -175 21 -194 l6 -34 35
62 35 63 -22 152 c-30 209 -26 196 -67 196 l-35 0 5 -42z"/>
<path d="M2810 667 l-23 -293 37 -67 c21 -37 41 -69 45 -71 4 -3 14 155 21
350 14 383 15 373 -36 374 -19 0 -21 -12 -44 -293z"/>
<path d="M3121 951 c-12 -8 -12 -60 -1 -360 7 -193 17 -351 21 -351 4 0 24 30
45 67 l37 67 -23 293 c-23 281 -25 293 -45 293 -11 0 -26 -4 -34 -9z"/>
<path d="M2950 865 c0 -47 -5 -233 -11 -412 l-11 -327 34 -63 c18 -34 38 -63
43 -63 6 0 25 29 43 63 l34 63 -11 327 c-6 179 -11 365 -11 412 l0 85 -55 0
-55 0 0 -85z"/>
</g>
</svg>
